<?xml version="1.0" standalone="no"?>
<!DOCTYPE svg PUBLIC "-//W3C//DTD SVG 20010904//EN"
 "http://www.w3.org/TR/2001/REC-SVG-20010904/DTD/svg10.dtd">
<svg version="1.0" xmlns="http://www.w3.org/2000/svg"
 width="500.000000pt" height="500.000000pt" viewBox="0 0 500.000000 500.000000"
 preserveAspectRatio="xMidYMid meet">
<metadata>
Created by potrace 1.14, written by Peter Selinger 2001-2017
</metadata>
<g transform="translate(0.000000,500.000000) scale(0.100000,-0.100000)"
fill="#000000" stroke="none">
<path d="M3538 4245 c-2 -2 -38 -6 -80 -9 -191 -16 -411 -69 -563 -135 -124
-54 -345 -180 -345 -196 0 -3 15 -29 34 -58 31 -48 210 -336 300 -483 l38 -62
122 63 c108 55 235 105 307 121 134 29 293 36 387 15 156 -33 234 -120 233
-257 -1 -105 -54 -196 -148 -250 -54 -32 -168 -71 -231 -80 -26 -3 -68 -9 -93
-13 -25 -4 -131 -9 -235 -10 -104 -1 -191 -5 -194 -7 -6 -7 -6 -674 0 -675 3
-1 75 -2 160 -4 356 -5 521 -35 645 -117 83 -55 115 -130 112 -263 -3 -102
-23 -154 -84 -213 -36 -36 -136 -85 -193 -96 -19 -3 -46 -9 -60 -12 -54 -14
-375 -13 -465 2 -197 31 -399 90 -560 164 l-82 38 -1 -378 0 -378 57 -20 c132
-47 181 -62 271 -86 52 -13 117 -27 144 -30 27 -4 52 -9 55 -11 4 -2 38 -6 76
-10 39 -4 81 -9 95 -12 14 -2 131 -6 260 -8 399 -6 677 45 924 170 253 129
419 315 494 555 11 34 16 58 31 153 11 63 5 250 -8 312 -51 227 -160 372 -366
484 -77 43 -234 94 -355 116 -52 10 -98 21 -103 24 -4 4 26 18 65 30 318 103
551 314 633 574 14 43 28 101 32 130 13 88 7 257 -11 327 -19 76 -74 192 -111
235 -15 17 -30 35 -33 40 -13 19 -117 108 -157 133 -207 131 -460 190 -817
190 -98 -1 -179 -2 -180 -3z"/>
<path d="M1218 3475 c-2 -1 -39 -6 -83 -9 -44 -4 -91 -8 -105 -10 -14 -2 -50
-7 -80 -10 -30 -4 -75 -12 -100 -18 -25 -5 -56 -12 -70 -14 -14 -3 -43 -10
-65 -16 -22 -5 -48 -12 -58 -14 -76 -14 -357 -128 -357 -145 0 -8 38 -99 125
-294 31 -71 65 -148 74 -170 10 -22 26 -59 36 -82 10 -24 20 -43 22 -43 2 0
32 12 66 26 167 71 378 136 492 152 28 4 102 7 165 7 98 0 122 -3 164 -23 95
-43 145 -126 153 -254 l5 -78 -33 -1 c-198 -4 -518 -18 -549 -23 -20 -4 -113
-16 -155 -20 -72 -9 -225 -48 -305 -78 -287 -109 -446 -274 -507 -526 -21 -87
-25 -313 -8 -407 8 -38 13 -70 13 -70 0 0 3 -13 7 -30 11 -52 25 -88 68 -175
85 -172 281 -322 463 -354 16 -3 52 -10 80 -15 73 -14 271 -11 383 5 236 35
360 99 534 275 54 54 101 99 106 99 4 0 46 -75 93 -167 l85 -168 314 -3 314
-2 -1 907 c0 500 -4 933 -8 963 -42 317 -220 566 -490 685 -60 26 -208 72
-261 81 -16 2 -46 7 -65 10 -35 6 -456 14 -462 9z m387 -1627 c-2 -73 -6 -146
-10 -162 -7 -34 -48 -113 -73 -142 -68 -79 -194 -134 -309 -134 -98 0 -151 17
-197 64 -49 49 -66 103 -60 193 6 113 58 194 153 242 72 37 119 50 206 57 39
4 71 7 72 8 1 1 51 3 111 4 l109 3 -2 -133z"/>
</g>
</svg>
