<?xml version="1.0" standalone="no"?>
<!DOCTYPE svg PUBLIC "-//W3C//DTD SVG 20010904//EN"
 "http://www.w3.org/TR/2001/REC-SVG-20010904/DTD/svg10.dtd">
<svg version="1.0" xmlns="http://www.w3.org/2000/svg"
 width="2048.000000pt" height="2048.000000pt" viewBox="0 0 2048.000000 2048.000000"
 preserveAspectRatio="xMidYMid meet">
<metadata>
Created by potrace 1.14, written by Peter Selinger 2001-2017
</metadata>
<g transform="translate(0.000000,2048.000000) scale(0.100000,-0.100000)"
fill="#000000" stroke="none">
<path d="M6117 18234 c-1 -1 -54 -5 -117 -8 -63 -4 -128 -8 -145 -11 -16 -2
-74 -9 -129 -15 -54 -7 -108 -13 -119 -16 -12 -2 -39 -6 -62 -10 -32 -4 -169
-31 -255 -49 -302 -63 -704 -221 -955 -375 -75 -46 -236 -156 -272 -186 -12
-11 -47 -39 -77 -64 -87 -71 -275 -266 -357 -370 -234 -299 -405 -633 -521
-1015 -35 -117 -80 -289 -92 -355 -2 -14 -11 -59 -20 -100 -8 -41 -17 -93 -20
-115 -4 -22 -8 -51 -11 -65 -6 -37 -13 -88 -20 -150 -3 -30 -7 -66 -10 -80 -2
-14 -7 -61 -11 -105 -3 -44 -7 -92 -9 -107 -4 -28 -14 -189 -20 -302 -4 -62
-11 -522 -20 -1316 -3 -239 -7 -471 -10 -515 -5 -118 -15 -265 -20 -305 -2
-19 -7 -62 -10 -95 -49 -507 -171 -829 -386 -1020 -134 -120 -361 -214 -599
-249 -138 -19 -215 -26 -402 -31 -326 -10 -401 -22 -552 -86 -157 -67 -322
-207 -418 -354 -39 -61 -57 -95 -99 -190 -4 -11 -18 -58 -31 -105 -31 -119
-31 -348 0 -462 95 -352 358 -613 702 -699 91 -22 145 -27 395 -34 99 -3 196
-7 215 -9 19 -2 62 -7 95 -11 545 -56 849 -289 984 -755 31 -107 45 -167 56
-230 3 -19 10 -60 15 -90 5 -30 14 -102 20 -160 6 -58 13 -121 15 -140 4 -41
16 -206 20 -299 2 -36 6 -273 9 -526 10 -778 17 -1237 20 -1305 7 -130 18
-287 31 -425 6 -64 33 -283 40 -325 16 -94 35 -202 44 -240 5 -25 12 -59 15
-77 26 -146 136 -499 206 -658 163 -371 346 -644 604 -900 172 -171 282 -259
481 -382 320 -199 787 -368 1185 -429 19 -3 42 -7 50 -9 8 -2 38 -7 65 -10 28
-4 61 -8 75 -11 14 -2 50 -6 80 -10 30 -3 69 -7 86 -9 100 -12 285 -19 474
-19 237 -1 301 10 454 75 249 106 458 342 534 604 33 112 41 172 38 300 -10
434 -301 798 -725 906 -82 21 -147 26 -401 34 -202 5 -284 13 -440 40 -451 78
-703 287 -836 692 -29 89 -68 252 -80 333 -1 14 -8 57 -13 95 -19 136 -34 297
-46 525 -3 41 -7 275 -10 520 -9 794 -16 1264 -20 1325 -7 129 -17 271 -19
300 -2 17 -7 64 -10 105 -7 76 -33 294 -41 340 -2 14 -7 43 -11 65 -5 36 -25
143 -38 205 -21 100 -23 106 -50 210 -13 52 -39 140 -57 195 -18 55 -33 102
-34 105 -4 28 -110 274 -163 380 -108 213 -221 384 -382 578 l-53 63 32 37
c195 229 334 445 451 700 50 110 146 358 155 402 2 8 8 27 14 43 6 15 9 27 6
27 -2 0 2 15 10 34 8 18 16 44 19 57 3 13 18 85 35 159 32 143 69 345 76 420
3 25 8 60 11 78 7 43 11 81 19 177 4 44 9 96 10 115 2 19 6 82 10 140 3 58 8
134 10 170 4 62 8 277 20 1310 3 250 7 475 9 500 2 25 7 100 11 168 3 67 8
132 10 145 2 12 6 54 9 92 3 39 8 79 10 90 2 11 7 43 10 70 13 92 17 120 37
213 91 424 269 668 587 805 34 14 62 24 62 21 0 -2 10 0 21 7 41 21 235 62
354 75 33 3 74 7 90 10 17 2 111 6 210 9 315 10 321 10 450 47 316 90 564 349
655 683 31 111 35 313 9 430 -69 316 -282 572 -575 692 -141 57 -230 71 -452
70 -106 -1 -194 -2 -195 -3z"/>
<path d="M13913 18225 c-265 -49 -488 -197 -634 -420 -40 -61 -58 -95 -100
-190 -4 -11 -18 -58 -31 -105 -31 -119 -31 -348 0 -462 95 -352 358 -613 702
-699 91 -22 145 -27 395 -34 99 -3 196 -7 215 -9 19 -2 62 -7 95 -11 455 -47
742 -218 903 -541 58 -115 121 -333 147 -509 4 -22 9 -53 11 -70 8 -45 12 -73
19 -150 3 -39 8 -84 10 -100 3 -30 12 -165 21 -320 2 -44 6 -276 9 -515 10
-836 15 -1216 20 -1295 8 -151 17 -296 20 -323 3 -28 13 -128 20 -197 3 -40
22 -187 30 -235 13 -82 35 -201 44 -240 5 -25 12 -59 15 -77 35 -200 158 -562
268 -791 65 -136 197 -361 253 -430 7 -9 51 -64 96 -122 46 -58 92 -112 102
-121 19 -15 18 -17 -23 -64 -243 -281 -424 -593 -558 -965 -33 -90 -99 -304
-106 -342 -2 -13 -9 -41 -14 -63 -6 -22 -14 -55 -17 -74 -3 -19 -7 -37 -9 -40
-2 -3 -7 -22 -10 -41 -8 -51 -15 -89 -26 -145 -5 -27 -12 -68 -15 -90 -2 -22
-7 -49 -9 -60 -2 -11 -7 -49 -10 -85 -4 -36 -8 -76 -11 -90 -2 -13 -7 -53 -10
-89 -3 -36 -7 -84 -9 -106 -5 -45 -15 -195 -22 -325 -4 -83 -9 -399 -19 -1280
-3 -239 -7 -469 -9 -510 -2 -41 -7 -127 -11 -190 -3 -63 -8 -131 -10 -150 -2
-19 -7 -60 -10 -90 -17 -159 -24 -206 -51 -335 -14 -66 -26 -124 -28 -130 -23
-85 -69 -215 -95 -265 -105 -203 -215 -317 -401 -410 -150 -76 -338 -122 -592
-145 -32 -3 -131 -7 -220 -10 -326 -10 -401 -22 -552 -86 -157 -67 -322 -207
-418 -354 -39 -61 -57 -95 -99 -190 -49 -112 -70 -362 -43 -505 29 -157 113
-339 200 -437 109 -121 196 -191 309 -247 174 -86 249 -101 510 -101 195 1
399 9 470 20 17 3 53 7 80 10 68 6 129 14 195 25 30 6 73 12 95 16 166 24 568
135 690 189 17 7 53 23 82 34 182 71 500 254 629 361 17 14 53 43 80 65 146
118 372 365 479 525 28 41 53 77 58 78 4 2 7 8 7 13 0 5 12 28 27 52 52 80
135 241 201 387 46 102 159 440 177 530 2 8 15 66 29 129 23 100 38 176 51
261 2 14 6 39 9 55 9 54 36 269 41 335 3 36 7 83 9 105 5 43 14 188 22 325 4
82 8 383 19 1285 6 537 13 709 40 935 2 19 7 60 10 90 6 57 40 260 49 295 3
11 10 40 16 65 6 25 24 85 41 134 117 346 325 542 679 640 69 19 206 44 285
52 33 3 74 7 90 10 17 2 111 6 210 9 223 7 314 12 351 21 317 71 547 247 683
520 74 149 104 289 97 461 -10 246 -98 453 -268 630 -160 167 -386 274 -611
288 -39 3 -148 7 -242 9 -206 6 -288 14 -445 41 -444 77 -698 283 -828 670
-31 93 -51 162 -59 205 -2 14 -10 57 -18 95 -13 66 -27 163 -40 280 -2 28 -7
68 -9 90 -5 42 -15 192 -22 330 -2 44 -6 271 -9 505 -12 986 -16 1229 -20
1300 -2 41 -6 120 -10 175 -3 55 -7 120 -10 145 -13 138 -37 348 -40 370 -2
14 -7 43 -10 65 -12 82 -36 219 -40 225 -2 3 -6 23 -9 45 -26 160 -128 496
-212 696 -229 547 -602 995 -1071 1285 -392 243 -847 397 -1390 469 -91 12
-111 15 -188 21 -44 3 -91 8 -105 10 -14 2 -135 6 -270 8 -178 3 -265 1 -317
-9z"/>
</g>
</svg>
